<?xml version="1.0" standalone="no"?>
<!DOCTYPE svg PUBLIC "-//W3C//DTD SVG 20010904//EN" "http://www.w3.org/TR/2001/REC-SVG-20010904/DTD/svg10.dtd">
<!-- Created using Karbon, part of Calligra: http://www.calligra.org/karbon -->
<svg xmlns="http://www.w3.org/2000/svg" xmlns:xlink="http://www.w3.org/1999/xlink" width="38.4pt" height="38.4pt">
<defs/>
<g id="layer0">
  <path id="shape0" transform="translate(0.5, 0.5)" fill="#000000" d="M23.7 47C10.6 47 0 36.5 0 23.5C0 10.5 10.6 0 23.7 0C36.8 0 47.4 10.5 47.4 23.5C47.4 36.5 36.8 47 23.7 47ZM23.7 3C12.3 3 3 12.2 3 23.5C3 34.8 12.3 44 23.7 44C35.1 44 44.4 34.8 44.4 23.5C44.4 12.2 35.1 3 23.7 3Z"/>
  <path id="shape1" transform="translate(0.5, 22.5)" fill="#800000" d="M23.7 25C10.6 25 0 14.5 0 1.5C0 0.7 0.7 0 1.5 0C2.3 0 3 0.7 3 1.5C3 12.8 12.3 22 23.7 22C24.5 22 25.2 22.7 25.2 23.5C25.2 24.3 24.5 25 23.7 25Z"/>
 </g>
</svg>
